<?xml version="1.0" standalone="no"?>
<!DOCTYPE svg PUBLIC "-//W3C//DTD SVG 20010904//EN"
 "http://www.w3.org/TR/2001/REC-SVG-20010904/DTD/svg10.dtd">
<svg version="1.0" xmlns="http://www.w3.org/2000/svg"
 width="32.000000pt" height="32.000000pt" viewBox="0 0 32.000000 32.000000"
 preserveAspectRatio="xMidYMid meet">

<g transform="translate(0.000000,32.000000) scale(0.100000,-0.100000)"
fill="#000000" stroke="none">
<path d="M24 277 c-2 -7 -3 -65 -2 -128 l3 -114 135 0 135 0 0 110 0 110 -72
3 c-47 2 -75 8 -83 17 -16 19 -109 20 -116 2z m106 -22 c9 -11 32 -15 81 -15
55 0 69 -3 69 -15 0 -12 -20 -15 -120 -15 l-120 0 0 30 c0 28 2 30 39 30 22 0
44 -6 51 -15z m60 -90 c0 -13 -45 -95 -52 -95 -12 0 -10 5 14 55 18 38 38 59
38 40z m-90 -30 c-10 -12 -10 -18 0 -30 20 -24 6 -28 -15 -5 -17 19 -17 21 0
40 21 23 35 19 15 -5z m135 -35 c-21 -23 -35 -19 -15 5 10 12 10 19 2 27 -7 7
-12 17 -12 22 0 6 10 1 22 -11 21 -22 21 -23 3 -43z"/>
</g>
</svg>
